<svg width="48" height="48" viewBox="0 0 48 48" fill="none" xmlns="http://www.w3.org/2000/svg">
<rect x="0.769231" y="0.769231" width="46.4615" height="46.4615" rx="3.23077" fill="#F1F3F7" stroke="#0A0E18" stroke-width="1.53846"/>
<mask id="mask0_71_891" style="mask-type:alpha" maskUnits="userSpaceOnUse" x="1" y="1" width="46" height="46">
<rect x="1.68066" y="1.84961" width="44.6131" height="44.6024" rx="2" fill="#E1E4ED"/>
</mask>
<g mask="url(#mask0_71_891)">
<line x1="32.8066" y1="-2.18557e-08" x2="32.8066" y2="50.0481" stroke="#B4B9C9"/>
<line x1="41.1143" y1="-2.18557e-08" x2="41.1143" y2="50.0481" stroke="#B4B9C9"/>
<line x1="24.499" y1="-2.18557e-08" x2="24.499" y2="50.0481" stroke="#B4B9C9"/>
<line x1="7.88379" y1="-2.18557e-08" x2="7.88379" y2="50.0481" stroke="#B4B9C9"/>
<line x1="16.1914" y1="-2.18557e-08" x2="16.1914" y2="50.0481" stroke="#B4B9C9"/>
<line x1="-1.02441" y1="16.2163" x2="49.0237" y2="16.2163" stroke="#B4B9C9"/>
<line x1="-1.02441" y1="7.90869" x2="49.0237" y2="7.90869" stroke="#B4B9C9"/>
<line x1="-1.02441" y1="24.5242" x2="49.0237" y2="24.5242" stroke="#B4B9C9"/>
<line x1="-1.02441" y1="41.1394" x2="49.0237" y2="41.1394" stroke="#B4B9C9"/>
<line x1="-1.02441" y1="32.8318" x2="49.0237" y2="32.8318" stroke="#B4B9C9"/>
<rect x="0.751953" y="0.875" width="46.322" height="46.3109" rx="3" fill="url(#paint0_radial_71_891)"/>
</g>
<path d="M34.5 15H12.9C12.6613 15 12.4324 15.0948 12.2636 15.2636C12.0948 15.4324 12 15.6613 12 15.9V31.2C12 31.6774 12.1896 32.1352 12.5272 32.4728C12.8648 32.8104 13.3226 33 13.8 33H33.6C34.0774 33 34.5352 32.8104 34.8728 32.4728C35.2104 32.1352 35.4 31.6774 35.4 31.2V15.9C35.4 15.6613 35.3052 15.4324 35.1364 15.2636C34.9676 15.0948 34.7387 15 34.5 15ZM23.7 24.5794L15.2141 16.8H32.1859L23.7 24.5794ZM20.4049 24L13.8 30.0536V17.9464L20.4049 24ZM21.7369 25.2206L23.0869 26.4637C23.2529 26.6162 23.4701 26.7007 23.6955 26.7007C23.9209 26.7007 24.1381 26.6162 24.3041 26.4637L25.6541 25.2206L32.1791 31.2H15.2141L21.7369 25.2206ZM26.9951 24L33.6 17.9453V30.0548L26.9951 24Z" fill="#0A0E18"/>
<defs>
<radialGradient id="paint0_radial_71_891" cx="0" cy="0" r="1" gradientUnits="userSpaceOnUse" gradientTransform="translate(23.913 24.0305) rotate(90) scale(23.1555 23.161)">
<stop stop-color="#F6FAFD" stop-opacity="0.28"/>
<stop offset="1" stop-color="#F6FAFD"/>
</radialGradient>
</defs>
</svg>
