<svg width="48" height="48" viewBox="0 0 48 48" fill="none" xmlns="http://www.w3.org/2000/svg">
<rect x="0.769231" y="0.769231" width="46.4615" height="46.4615" rx="3.23077" fill="#F1F3F7" stroke="#0A0E18" stroke-width="1.53846"/>
<mask id="mask0_71_968" style="mask-type:alpha" maskUnits="userSpaceOnUse" x="1" y="1" width="46" height="46">
<rect x="1.68066" y="1.84961" width="44.6131" height="44.6024" rx="2" fill="#E1E4ED"/>
</mask>
<g mask="url(#mask0_71_968)">
<line x1="32.8066" y1="-2.18557e-08" x2="32.8066" y2="50.0481" stroke="#B4B9C9"/>
<line x1="41.1143" y1="-2.18557e-08" x2="41.1143" y2="50.0481" stroke="#B4B9C9"/>
<line x1="24.499" y1="-2.18557e-08" x2="24.499" y2="50.0481" stroke="#B4B9C9"/>
<line x1="7.88379" y1="-2.18557e-08" x2="7.88379" y2="50.0481" stroke="#B4B9C9"/>
<line x1="16.1914" y1="-2.18557e-08" x2="16.1914" y2="50.0481" stroke="#B4B9C9"/>
<line x1="-1.02441" y1="16.2163" x2="49.0237" y2="16.2163" stroke="#B4B9C9"/>
<line x1="-1.02441" y1="7.90869" x2="49.0237" y2="7.90869" stroke="#B4B9C9"/>
<line x1="-1.02441" y1="24.5242" x2="49.0237" y2="24.5242" stroke="#B4B9C9"/>
<line x1="-1.02441" y1="41.1394" x2="49.0237" y2="41.1394" stroke="#B4B9C9"/>
<line x1="-1.02441" y1="32.8318" x2="49.0237" y2="32.8318" stroke="#B4B9C9"/>
<rect x="0.751953" y="0.875" width="46.322" height="46.3109" rx="3" fill="url(#paint0_radial_71_968)"/>
</g>
<path d="M23.5004 15.5004C21.7204 15.5004 19.9803 16.0283 18.5003 17.0172C17.0202 18.0061 15.8667 19.4117 15.1855 21.0563C14.5043 22.7008 14.3261 24.5104 14.6733 26.2562C15.0206 28.0021 15.8778 29.6057 17.1365 30.8644C18.3951 32.123 19.9988 32.9802 21.7446 33.3275C23.4904 33.6747 25.3 33.4965 26.9446 32.8153C28.5891 32.1341 29.9947 30.9806 30.9836 29.5005C31.9726 28.0205 32.5004 26.2804 32.5004 24.5004C32.4977 22.1143 31.5486 19.8267 29.8614 18.1395C28.1741 16.4522 25.8865 15.5031 23.5004 15.5004ZM23.5004 32.0004C22.0171 32.0004 20.567 31.5605 19.3336 30.7364C18.1003 29.9123 17.139 28.741 16.5713 27.3705C16.0037 26.0001 15.8551 24.4921 16.1445 23.0372C16.4339 21.5824 17.1482 20.246 18.1971 19.1971C19.246 18.1482 20.5824 17.4339 22.0372 17.1445C23.4921 16.8551 25.0001 17.0037 26.3705 17.5713C27.741 18.139 28.9123 19.1003 29.7364 20.3336C30.5605 21.567 31.0004 23.0171 31.0004 24.5004C30.9982 26.4889 30.2073 28.3952 28.8013 29.8013C27.3952 31.2073 25.4889 31.9982 23.5004 32.0004ZM17.281 15.281L14.281 18.281C14.1403 18.4218 13.9494 18.5008 13.7504 18.5008C13.5514 18.5008 13.3605 18.4218 13.2198 18.281C13.0791 18.1403 13 17.9494 13 17.7504C13 17.5514 13.0791 17.3605 13.2198 17.2198L16.2198 14.2198C16.3605 14.0791 16.5514 14 16.7504 14C16.9494 14 17.1403 14.0791 17.281 14.2198C17.4218 14.3605 17.5008 14.5514 17.5008 14.7504C17.5008 14.9494 17.4218 15.1403 17.281 15.281ZM33.781 18.281C33.7114 18.3508 33.6287 18.4061 33.5376 18.4438C33.4466 18.4816 33.349 18.501 33.2504 18.501C33.1519 18.501 33.0543 18.4816 32.9632 18.4438C32.8722 18.4061 32.7894 18.3508 32.7198 18.281L29.7198 15.281C29.5791 15.1403 29.5 14.9494 29.5 14.7504C29.5 14.5514 29.5791 14.3605 29.7198 14.2198C29.8605 14.0791 30.0514 14 30.2504 14C30.4494 14 30.6403 14.0791 30.781 14.2198L33.781 17.2198C33.8508 17.2894 33.9061 17.3722 33.9438 17.4632C33.9816 17.5543 34.001 17.6519 34.001 17.7504C34.001 17.849 33.9816 17.9466 33.9438 18.0376C33.9061 18.1287 33.8508 18.2114 33.781 18.281ZM28.7504 23.7504C28.9493 23.7504 29.1401 23.8294 29.2807 23.9701C29.4214 24.1107 29.5004 24.3015 29.5004 24.5004C29.5004 24.6993 29.4214 24.8901 29.2807 25.0307C29.1401 25.1714 28.9493 25.2504 28.7504 25.2504H23.5004C23.3015 25.2504 23.1107 25.1714 22.9701 25.0307C22.8294 24.8901 22.7504 24.6993 22.7504 24.5004V19.2504C22.7504 19.0515 22.8294 18.8607 22.9701 18.7201C23.1107 18.5794 23.3015 18.5004 23.5004 18.5004C23.6993 18.5004 23.8901 18.5794 24.0307 18.7201C24.1714 18.8607 24.2504 19.0515 24.2504 19.2504V23.7504H28.7504Z" fill="black"/>
<defs>
<radialGradient id="paint0_radial_71_968" cx="0" cy="0" r="1" gradientUnits="userSpaceOnUse" gradientTransform="translate(23.913 24.0305) rotate(90) scale(23.1555 23.161)">
<stop stop-color="#F6FAFD" stop-opacity="0.28"/>
<stop offset="1" stop-color="#F6FAFD"/>
</radialGradient>
</defs>
</svg>
