<svg width="13" height="12" viewBox="0 0 13 12" fill="none" xmlns="http://www.w3.org/2000/svg">
<path fill-rule="evenodd" clip-rule="evenodd" d="M0.546875 6C0.546875 3.60324 0.546875 2.40486 1.118 1.5417C1.37304 1.15626 1.70313 0.826164 2.08858 0.571128C2.95174 0 4.15012 0 6.54688 0C8.94363 0 10.142 0 11.0052 0.571128C11.3906 0.826164 11.7207 1.15626 11.9757 1.5417C12.5469 2.40486 12.5469 3.60324 12.5469 6C12.5469 8.39676 12.5469 9.59514 11.9757 10.4583C11.7207 10.8437 11.3906 11.1738 11.0052 11.4289C10.142 12 8.94363 12 6.54688 12C4.15012 12 2.95174 12 2.08858 11.4289C1.70313 11.1738 1.37304 10.8437 1.118 10.4583C0.546875 9.59514 0.546875 8.39676 0.546875 6ZM9.65304 6.00015C9.65304 7.7157 8.26232 9.10642 6.54677 9.10642C4.83122 9.10642 3.4405 7.7157 3.4405 6.00015C3.4405 4.2846 4.83122 2.89388 6.54677 2.89388C8.26232 2.89388 9.65304 4.2846 9.65304 6.00015ZM6.54677 8.05549C7.6819 8.05549 8.60211 7.13528 8.60211 6.00015C8.60211 4.86502 7.6819 3.94482 6.54677 3.94482C5.41164 3.94482 4.49143 4.86502 4.49143 6.00015C4.49143 7.13528 5.41164 8.05549 6.54677 8.05549ZM9.77572 3.4677C10.1788 3.4677 10.5056 3.14092 10.5056 2.73782C10.5056 2.33471 10.1788 2.00793 9.77572 2.00793C9.37262 2.00793 9.04584 2.33471 9.04584 2.73782C9.04584 3.14092 9.37262 3.4677 9.77572 3.4677Z" fill="white"/>
</svg>
