<svg width="48" height="48" viewBox="0 0 48 48" fill="none" xmlns="http://www.w3.org/2000/svg">
<rect x="0.769231" y="0.769231" width="46.4615" height="46.4615" rx="3.23077" fill="#F1F3F7" stroke="#0A0E18" stroke-width="1.53846"/>
<mask id="mask0_71_943" style="mask-type:alpha" maskUnits="userSpaceOnUse" x="1" y="1" width="46" height="46">
<rect x="1.68066" y="1.84961" width="44.6131" height="44.6024" rx="2" fill="#E1E4ED"/>
</mask>
<g mask="url(#mask0_71_943)">
<line x1="32.8066" y1="-2.18557e-08" x2="32.8066" y2="50.0481" stroke="#B4B9C9"/>
<line x1="41.1143" y1="-2.18557e-08" x2="41.1143" y2="50.0481" stroke="#B4B9C9"/>
<line x1="24.499" y1="-2.18557e-08" x2="24.499" y2="50.0481" stroke="#B4B9C9"/>
<line x1="7.88379" y1="-2.18557e-08" x2="7.88379" y2="50.0481" stroke="#B4B9C9"/>
<line x1="16.1914" y1="-2.18557e-08" x2="16.1914" y2="50.0481" stroke="#B4B9C9"/>
<line x1="-1.02441" y1="16.2163" x2="49.0237" y2="16.2163" stroke="#B4B9C9"/>
<line x1="-1.02441" y1="7.90869" x2="49.0237" y2="7.90869" stroke="#B4B9C9"/>
<line x1="-1.02441" y1="24.5242" x2="49.0237" y2="24.5242" stroke="#B4B9C9"/>
<line x1="-1.02441" y1="41.1394" x2="49.0237" y2="41.1394" stroke="#B4B9C9"/>
<line x1="-1.02441" y1="32.8318" x2="49.0237" y2="32.8318" stroke="#B4B9C9"/>
<rect x="0.751953" y="0.875" width="46.322" height="46.3109" rx="3" fill="url(#paint0_radial_71_943)"/>
</g>
<path d="M24.25 18.5C23.5083 18.5 22.7833 18.7199 22.1666 19.132C21.5499 19.544 21.0693 20.1297 20.7855 20.8149C20.5016 21.5002 20.4274 22.2542 20.5721 22.9816C20.7167 23.709 21.0739 24.3772 21.5983 24.9017C22.1228 25.4261 22.791 25.7833 23.5184 25.9279C24.2458 26.0726 24.9998 25.9984 25.6851 25.7145C26.3703 25.4307 26.956 24.9501 27.368 24.3334C27.7801 23.7167 28 22.9917 28 22.25C28 21.2554 27.6049 20.3016 26.9017 19.5983C26.1984 18.8951 25.2446 18.5 24.25 18.5ZM24.25 24.5C23.805 24.5 23.37 24.368 23 24.1208C22.63 23.8736 22.3416 23.5222 22.1713 23.111C22.001 22.6999 21.9564 22.2475 22.0432 21.811C22.13 21.3746 22.3443 20.9737 22.659 20.659C22.9737 20.3443 23.3746 20.13 23.811 20.0432C24.2475 19.9564 24.6999 20.001 25.111 20.1713C25.5222 20.3416 25.8736 20.63 26.1208 21C26.368 21.37 26.5 21.805 26.5 22.25C26.5 22.8467 26.2629 23.419 25.841 23.841C25.419 24.2629 24.8467 24.5 24.25 24.5ZM24.25 14C22.0627 14.0025 19.9657 14.8725 18.4191 16.4191C16.8725 17.9657 16.0025 20.0627 16 22.25C16 25.1938 17.3603 28.3138 19.9375 31.2734C21.0955 32.6108 22.3989 33.8151 23.8234 34.8641C23.9495 34.9524 24.0998 34.9998 24.2537 34.9998C24.4077 34.9998 24.558 34.9524 24.6841 34.8641C26.106 33.8147 27.4068 32.6104 28.5625 31.2734C31.1359 28.3138 32.5 25.1938 32.5 22.25C32.4975 20.0627 31.6275 17.9657 30.0809 16.4191C28.5343 14.8725 26.4373 14.0025 24.25 14ZM24.25 33.3125C22.7003 32.0938 17.5 27.6172 17.5 22.25C17.5 20.4598 18.2112 18.7429 19.477 17.477C20.7429 16.2112 22.4598 15.5 24.25 15.5C26.0402 15.5 27.7571 16.2112 29.023 17.477C30.2888 18.7429 31 20.4598 31 22.25C31 27.6153 25.7997 32.0938 24.25 33.3125Z" fill="black"/>
<defs>
<radialGradient id="paint0_radial_71_943" cx="0" cy="0" r="1" gradientUnits="userSpaceOnUse" gradientTransform="translate(23.913 24.0305) rotate(90) scale(23.1555 23.161)">
<stop stop-color="#F6FAFD" stop-opacity="0.28"/>
<stop offset="1" stop-color="#F6FAFD"/>
</radialGradient>
</defs>
</svg>
