<svg width="48" height="48" viewBox="0 0 48 48" fill="none" xmlns="http://www.w3.org/2000/svg">
<rect x="0.769231" y="0.769231" width="46.4615" height="46.4615" rx="3.23077" fill="#F1F3F7" stroke="#0A0E18" stroke-width="1.53846"/>
<mask id="mask0_71_918" style="mask-type:alpha" maskUnits="userSpaceOnUse" x="1" y="1" width="46" height="46">
<rect x="1.68066" y="1.84961" width="44.6131" height="44.6024" rx="2" fill="#E1E4ED"/>
</mask>
<g mask="url(#mask0_71_918)">
<line x1="32.8066" y1="-2.18557e-08" x2="32.8066" y2="50.0481" stroke="#B4B9C9"/>
<line x1="41.1143" y1="-2.18557e-08" x2="41.1143" y2="50.0481" stroke="#B4B9C9"/>
<line x1="24.499" y1="-2.18557e-08" x2="24.499" y2="50.0481" stroke="#B4B9C9"/>
<line x1="7.88379" y1="-2.18557e-08" x2="7.88379" y2="50.0481" stroke="#B4B9C9"/>
<line x1="16.1914" y1="-2.18557e-08" x2="16.1914" y2="50.0481" stroke="#B4B9C9"/>
<line x1="-1.02441" y1="16.2163" x2="49.0237" y2="16.2163" stroke="#B4B9C9"/>
<line x1="-1.02441" y1="7.90869" x2="49.0237" y2="7.90869" stroke="#B4B9C9"/>
<line x1="-1.02441" y1="24.5242" x2="49.0237" y2="24.5242" stroke="#B4B9C9"/>
<line x1="-1.02441" y1="41.1394" x2="49.0237" y2="41.1394" stroke="#B4B9C9"/>
<line x1="-1.02441" y1="32.8318" x2="49.0237" y2="32.8318" stroke="#B4B9C9"/>
<rect x="0.751953" y="0.875" width="46.322" height="46.3109" rx="3" fill="url(#paint0_radial_71_918)"/>
</g>
<path d="M28.25 34H19.25C18.6533 34 18.081 33.7629 17.659 33.341C17.2371 32.919 17 32.3467 17 31.75V15.25C17 14.6533 17.2371 14.081 17.659 13.659C18.081 13.2371 18.6533 13 19.25 13H28.25C28.8467 13 29.419 13.2371 29.841 13.659C30.2629 14.081 30.5 14.6533 30.5 15.25V31.75C30.5 32.3467 30.2629 32.919 29.841 33.341C29.419 33.7629 28.8467 34 28.25 34ZM29 15.25C29 15.0511 28.921 14.8603 28.7803 14.7197C28.6397 14.579 28.4489 14.5 28.25 14.5H19.25C19.0511 14.5 18.8603 14.579 18.7197 14.7197C18.579 14.8603 18.5 15.0511 18.5 15.25V31.75C18.5 31.9489 18.579 32.1397 18.7197 32.2803C18.8603 32.421 19.0511 32.5 19.25 32.5H28.25C28.4489 32.5 28.6397 32.421 28.7803 32.2803C28.921 32.1397 29 31.9489 29 31.75V15.25ZM24.875 29.875C24.875 29.6525 24.809 29.435 24.6854 29.25C24.5618 29.065 24.3861 28.9208 24.1805 28.8356C23.975 28.7505 23.7488 28.7282 23.5305 28.7716C23.3123 28.815 23.1118 28.9222 22.9545 29.0795C22.7972 29.2368 22.69 29.4373 22.6466 29.6555C22.6032 29.8738 22.6255 30.1 22.7106 30.3055C22.7958 30.5111 22.94 30.6868 23.125 30.8104C23.31 30.934 23.5275 31 23.75 31C24.0484 31 24.3345 30.8815 24.5455 30.6705C24.7565 30.4595 24.875 30.1734 24.875 29.875Z" fill="black"/>
<defs>
<radialGradient id="paint0_radial_71_918" cx="0" cy="0" r="1" gradientUnits="userSpaceOnUse" gradientTransform="translate(23.913 24.0305) rotate(90) scale(23.1555 23.161)">
<stop stop-color="#F6FAFD" stop-opacity="0.28"/>
<stop offset="1" stop-color="#F6FAFD"/>
</radialGradient>
</defs>
</svg>
