<svg width="13" height="10" viewBox="0 0 13 10" fill="none" xmlns="http://www.w3.org/2000/svg">
<path d="M8.56491 0.134241V0.13208H9.12758L9.33317 0.173141C9.47023 0.199799 9.59467 0.234733 9.70648 0.277956C9.8183 0.321178 9.9265 0.371608 10.0311 0.429234C10.1357 0.486861 10.2306 0.545578 10.3157 0.605366C10.4001 0.66444 10.4758 0.727112 10.5429 0.793383C10.6093 0.860378 10.7128 0.877667 10.8535 0.84525C10.9941 0.812833 11.1456 0.767806 11.3079 0.71018C11.4702 0.652554 11.6307 0.58772 11.7894 0.515679C11.9481 0.443638 12.0448 0.397898 12.0794 0.378448C12.1133 0.358285 12.1314 0.347479 12.1335 0.346031L12.1357 0.342789L12.1465 0.337387L12.1573 0.331984L12.1682 0.326581L12.179 0.321178L12.1811 0.317936L12.1844 0.315775L12.1876 0.313614L12.1898 0.310373L12.2006 0.307131L12.2114 0.30497L12.2093 0.321178L12.206 0.337387L12.2006 0.353595L12.1952 0.369803L12.1898 0.380609L12.1844 0.391415L12.179 0.407623C12.1754 0.418429 12.1718 0.432832 12.1682 0.450845C12.1646 0.468858 12.1303 0.540889 12.0654 0.666957C12.0004 0.793027 11.9193 0.920889 11.8219 1.05056C11.7245 1.18022 11.6372 1.27819 11.5601 1.34447C11.4821 1.41146 11.4306 1.45828 11.4053 1.48494C11.3801 1.51231 11.3494 1.53752 11.3133 1.56058L11.2592 1.59624L11.2484 1.60164L11.2376 1.60705L11.2354 1.61029L11.2322 1.61245L11.2289 1.61461L11.2268 1.61785L11.2159 1.62325L11.2051 1.62866L11.203 1.6319L11.1997 1.63406L11.1965 1.63622L11.1943 1.63946L11.1922 1.6427L11.1889 1.64486L11.1856 1.64703L11.1835 1.65027H11.2376L11.5406 1.58543C11.7426 1.54221 11.9355 1.48999 12.1195 1.42875L12.4116 1.3315L12.4441 1.3207L12.4603 1.31529L12.4711 1.30989L12.482 1.30449L12.4928 1.29909L12.5036 1.29368L12.5252 1.29044L12.5469 1.28828V1.30989L12.5415 1.31205L12.5361 1.31529L12.5339 1.31854L12.5306 1.3207L12.5274 1.32286L12.5252 1.3261L12.5231 1.32934L12.5198 1.3315L12.5166 1.33366L12.5144 1.33691L12.5123 1.34015L12.509 1.34231L12.5036 1.35311L12.4982 1.36392L12.4949 1.36608C12.4935 1.36824 12.4477 1.42947 12.3575 1.54978C12.2673 1.6708 12.2187 1.73202 12.2114 1.73347C12.2042 1.73563 12.1941 1.74644 12.1811 1.76589C12.1689 1.78605 12.0924 1.86638 11.9517 2.00685C11.8111 2.14733 11.6733 2.2723 11.5384 2.38181C11.4028 2.49202 11.3343 2.62745 11.3328 2.7881C11.3307 2.94802 11.3224 3.12884 11.3079 3.33054C11.2935 3.53225 11.2664 3.75015 11.2268 3.98428C11.1871 4.2184 11.1258 4.48314 11.0428 4.77849C10.9599 5.07384 10.8589 5.36199 10.7398 5.64294C10.6208 5.92388 10.4964 6.17601 10.3665 6.39933C10.2367 6.62265 10.1177 6.81175 10.0095 6.96663C9.90125 7.1215 9.79125 7.26738 9.67943 7.40425C9.56762 7.54113 9.42624 7.69529 9.25527 7.86673C9.08358 8.03746 8.98981 8.13111 8.97394 8.14768C8.95735 8.16353 8.88666 8.2226 8.76184 8.32489C8.63778 8.4279 8.50431 8.53091 8.36148 8.63393C8.21938 8.73623 8.0888 8.82159 7.96978 8.89002C7.85075 8.95846 7.70721 9.03661 7.53912 9.12451C7.37177 9.21311 7.1907 9.29523 6.99593 9.37087C6.80116 9.44651 6.59557 9.51675 6.37916 9.58158C6.16275 9.64642 5.95355 9.69685 5.75156 9.73286C5.54959 9.76888 5.32055 9.7995 5.06446 9.82471L4.68033 9.86253V9.86793H3.97699V9.86253L3.88502 9.85712C3.82371 9.85353 3.77321 9.84992 3.73353 9.84632C3.69386 9.84272 3.54417 9.8229 3.28448 9.78689C3.02478 9.75087 2.821 9.71485 2.67311 9.67883C2.52524 9.64282 2.30522 9.57437 2.01306 9.47353C1.72091 9.37268 1.47095 9.27074 1.2632 9.16773C1.05617 9.06543 0.92632 9.0006 0.873656 8.97323C0.821717 8.94657 0.763286 8.91344 0.698363 8.87381L0.600978 8.81438L0.598825 8.81114L0.595568 8.80898L0.592321 8.80682L0.590157 8.80358L0.579337 8.79817L0.568516 8.79277L0.566363 8.78953L0.563106 8.78737L0.55986 8.78521L0.557696 8.78197L0.555542 8.77873L0.552285 8.77656H0.546875V8.75495L0.557696 8.75711L0.568516 8.76036L0.617209 8.76576C0.64967 8.76936 0.738042 8.77476 0.882312 8.78197C1.02659 8.78917 1.17988 8.78917 1.34219 8.78197C1.50449 8.77476 1.67042 8.75855 1.83993 8.73334C2.00946 8.70813 2.20964 8.66491 2.44047 8.60367C2.67132 8.54244 2.8834 8.46968 3.07673 8.3854C3.26934 8.3004 3.40639 8.23701 3.48791 8.19522C3.5687 8.15416 3.69205 8.0778 3.85797 7.96614L4.10684 7.79866L4.109 7.79542L4.11225 7.79325L4.11551 7.79109L4.11766 7.78785L4.11982 7.78461L4.12307 7.78245L4.12633 7.78029L4.12848 7.77705L4.1393 7.7738L4.15012 7.77164L4.15229 7.76084L4.15553 7.75003L4.15879 7.74787L4.16094 7.74463L4.07438 7.73923C4.01667 7.73563 3.96076 7.73202 3.90666 7.72842C3.85256 7.72482 3.7678 7.70861 3.65238 7.6798C3.53696 7.65098 3.41253 7.60775 3.27907 7.55013C3.14562 7.4925 3.01577 7.42406 2.88953 7.34482C2.76329 7.26558 2.67203 7.19966 2.61577 7.14708C2.56022 7.0952 2.48808 7.02173 2.39935 6.92664C2.31135 6.83084 2.23488 6.7325 2.16996 6.63165C2.10504 6.5308 2.043 6.41445 1.98386 6.28263L1.89403 6.08597L1.88862 6.06976L1.88321 6.05355L1.87997 6.04275L1.8778 6.03194L1.89403 6.0341L1.91027 6.03734L2.02929 6.05355C2.10865 6.06436 2.23309 6.06796 2.4026 6.06436C2.57213 6.06076 2.68935 6.05355 2.75427 6.04275C2.81919 6.03194 2.85887 6.02473 2.8733 6.02113L2.89494 6.01573L2.92199 6.01033L2.94904 6.00493L2.9512 6.00168L2.95445 5.99952L2.95771 5.99736L2.95986 5.99412L2.93822 5.98872L2.91658 5.98331L2.89494 5.97791L2.8733 5.97251L2.85165 5.96711C2.83723 5.96351 2.81199 5.9563 2.77591 5.9455C2.73985 5.93469 2.64246 5.89507 2.48376 5.82663C2.32506 5.7582 2.19882 5.69156 2.10504 5.62673C2.01102 5.56171 1.92138 5.4906 1.83669 5.41386C1.75229 5.33606 1.6596 5.23592 1.5586 5.11346C1.45761 4.991 1.36744 4.84873 1.28808 4.68664C1.20874 4.52456 1.14922 4.36968 1.10954 4.222C1.07002 4.07519 1.04395 3.92509 1.03165 3.77357L1.01216 3.54665L1.02298 3.54881L1.0338 3.55205L1.04462 3.55746L1.05544 3.56286L1.06626 3.56826L1.07708 3.57367L1.2448 3.6493C1.35662 3.69973 1.49548 3.74296 1.66139 3.77897C1.82732 3.81499 1.9265 3.8348 1.95896 3.8384L2.00765 3.84381H2.10504L2.10288 3.84056L2.09963 3.8384L2.09638 3.83624L2.09421 3.833L2.09206 3.82976L2.0888 3.8276L2.08556 3.82544L2.08339 3.82219L2.07257 3.81679L2.06175 3.81139L2.0596 3.80815L2.05634 3.80599L2.0531 3.80382L2.05093 3.80058L2.04011 3.79518L2.02929 3.78978L2.02714 3.78654C2.02497 3.78509 1.99395 3.76204 1.93407 3.71738C1.87491 3.672 1.81288 3.61329 1.74796 3.54125C1.68303 3.46921 1.61811 3.39357 1.55319 3.31433C1.48814 3.23491 1.43021 3.14994 1.38006 3.0604C1.32957 2.97036 1.27618 2.85581 1.21991 2.71678C1.16437 2.57847 1.12217 2.43908 1.09331 2.2986C1.06447 2.15813 1.04823 2.01946 1.04462 1.88259C1.04102 1.74571 1.04462 1.62866 1.05544 1.53141C1.06626 1.43416 1.0879 1.32429 1.12036 1.20183C1.15283 1.07938 1.19972 0.949708 1.26103 0.812833L1.35301 0.607527L1.35842 0.591318L1.36383 0.57511L1.36708 0.572949L1.36924 0.569707L1.3714 0.566465L1.37465 0.564304L1.3779 0.566465L1.38006 0.569707L1.38222 0.572949L1.38547 0.57511L1.38873 0.577271L1.39088 0.580513L1.39304 0.583754L1.39629 0.585915L1.4017 0.596721L1.40711 0.607527L1.41037 0.609688L1.41252 0.612929L1.5586 0.775014C1.65598 0.88307 1.77141 1.00374 1.90486 1.137C2.03832 1.27027 2.11225 1.33942 2.12668 1.34447C2.14111 1.35023 2.15914 1.36679 2.18078 1.39417C2.20242 1.42083 2.27456 1.48459 2.39719 1.58543C2.51983 1.68628 2.68033 1.80335 2.87871 1.93662C3.07709 2.06988 3.2971 2.20135 3.53876 2.33102C3.78043 2.46069 4.04012 2.57774 4.31784 2.6822C4.59557 2.78666 4.79034 2.85509 4.90215 2.88751C5.01397 2.91993 5.20513 2.96134 5.47564 3.01177C5.74615 3.0622 5.94995 3.09462 6.087 3.10902C6.22407 3.12343 6.31785 3.13172 6.36834 3.13388L6.44408 3.13604L6.44193 3.11983L6.43867 3.10362L6.41703 2.96855C6.4026 2.87851 6.39539 2.75244 6.39539 2.59036C6.39539 2.42827 6.40801 2.2788 6.43326 2.14192C6.45851 2.00505 6.49639 1.86638 6.54688 1.72591C6.59737 1.58543 6.64679 1.47269 6.69512 1.38769C6.74418 1.30341 6.80838 1.20724 6.88772 1.09918C6.96708 0.991126 7.06988 0.879471 7.19611 0.764208C7.32235 0.648945 7.46662 0.546291 7.62893 0.456248C7.79124 0.366205 7.94093 0.297762 8.07798 0.250942C8.21505 0.204121 8.33047 0.173498 8.42424 0.159094C8.51802 0.14469 8.56491 0.136402 8.56491 0.134241Z" fill="white"/>
</svg>
